<svg width="66" height="66" viewBox="0 0 66 66" fill="none" xmlns="http://www.w3.org/2000/svg">
<g filter="url(#filter0_d)">
<path d="M28.521 16C27.0567 16 25.6524 16.6096 24.6171 17.6948C23.5817 18.7799 23 20.2517 23 21.7863V37.2164C23.0005 38.2452 23.2626 39.2553 23.7595 40.1425C24.2564 41.0298 24.97 41.7622 25.8268 42.2643C26.6836 42.7663 27.6527 43.0199 28.6341 42.9988C29.6155 42.9777 30.5738 42.6828 31.4103 42.1444L43.3725 34.4293C44.1755 33.9114 44.8386 33.1866 45.2986 32.3239C45.7585 31.4613 46 30.4895 46 29.5013C46 28.5131 45.7585 27.5414 45.2986 26.6787C44.8386 25.8161 44.1755 25.0913 43.3725 24.5733L31.4103 16.8583C30.5414 16.2979 29.5413 16.0008 28.521 16ZM28.521 37.2164V21.7863L40.4831 29.5013L28.521 37.2164Z" fill="#FF296D"/>
<path d="M57.1895 18.8238C58.5386 18.0449 59.0008 16.3198 58.2219 14.9706C57.443 13.6215 55.7179 13.1592 54.3687 13.9382C53.0196 14.7171 52.5573 16.4422 53.3363 17.7913C54.1152 19.1405 55.8403 19.6027 57.1895 18.8238Z" fill="#FF296D"/>
<path d="M48.8203 8.39594C49.5992 7.04681 49.137 5.32168 47.7878 4.54275C46.4387 3.76383 44.7136 4.22608 43.9347 5.57521C43.1557 6.92435 43.618 8.64948 44.9671 9.4284C46.3162 10.2073 48.0414 9.74508 48.8203 8.39594Z" fill="#FF296D"/>
<path d="M56.3871 29C56.3871 33.6255 55.0155 38.1472 52.4457 41.9932C49.8759 45.8391 46.2233 48.8367 41.9499 50.6068C37.6764 52.377 32.9741 52.8401 28.4374 51.9377C23.9008 51.0353 19.7336 48.8079 16.4628 45.5372C13.1921 42.2664 10.9647 38.0992 10.0623 33.5626C9.1599 29.0259 9.62304 24.3236 11.3932 20.0501C13.1633 15.7767 16.1608 12.1241 20.0068 9.55434C23.8528 6.98453 28.3745 5.6129 33 5.6129H35.8065V0H33C27.2644 0 21.6575 1.70082 16.8885 4.88738C12.1195 8.07394 8.40245 12.6031 6.20751 17.9022C4.01257 23.2012 3.43827 29.0322 4.55724 34.6576C5.67621 40.2831 8.43819 45.4504 12.4939 49.5061C16.5496 53.5618 21.7169 56.3238 27.3424 57.4428C32.9678 58.5617 38.7988 57.9874 44.0978 55.7925C49.3969 53.5976 53.9261 49.8806 57.1126 45.1115C60.2992 40.3425 62 34.7356 62 29V26.1935H56.3871V29Z" fill="#FF296D"/>
</g>
<defs>
<filter id="filter0_d" x="0" y="0" width="66" height="66" filterUnits="userSpaceOnUse" color-interpolation-filters="sRGB">
<feFlood flood-opacity="0" result="BackgroundImageFix"/>
<feColorMatrix in="SourceAlpha" type="matrix" values="0 0 0 0 0 0 0 0 0 0 0 0 0 0 0 0 0 0 127 0"/>
<feOffset dy="4"/>
<feGaussianBlur stdDeviation="2"/>
<feColorMatrix type="matrix" values="0 0 0 0 0 0 0 0 0 0 0 0 0 0 0 0 0 0 0.25 0"/>
<feBlend mode="normal" in2="BackgroundImageFix" result="effect1_dropShadow"/>
<feBlend mode="normal" in="SourceGraphic" in2="effect1_dropShadow" result="shape"/>
</filter>
</defs>
</svg>
